HIERARCHY
ROOT hip
{
  OFFSET 0 0 0
  CHANNELS 6 Xposition Yposition Zposition Zrotation Yrotation Xrotation
  JOINT abdomen
  {
    OFFSET 0 20.6881 -0.73152
    CHANNELS 3 Zrotation Xrotation Yrotation
    JOINT chest
    {
      OFFSET 0 11.7043 -0.48768
      CHANNELS 3 Zrotation Xrotation Yrotation
      JOINT neck
      {
        OFFSET 0 22.1894 -2.19456
        CHANNELS 3 Zrotation Xrotation Yrotation
        JOINT head
        {
          OFFSET -0.24384 7.07133 1.2192
          CHANNELS 3 Zrotation Xrotation Yrotation
          JOINT leftEye
          {
            OFFSET 4.14528 8.04674 8.04672
            CHANNELS 3 Zrotation Xrotation Yrotation
            End Site
            {
              OFFSET 1 0 0
            }
          }
          JOINT rightEye
          {
            OFFSET -3.6576 8.04674 8.04672
            CHANNELS 3 Zrotation Xrotation Yrotation
            End Site
            {
              OFFSET 1 0 0
            }
          }
        }
      }
      JOINT rCollar
      {
        OFFSET -2.68224 19.2634 -4.8768
        CHANNELS 3 Zrotation Xrotation Yrotation
        JOINT rShldr
        {
          OFFSET -8.77824 -1.95073 1.46304
          CHANNELS 3 Zrotation Xrotation Yrotation
          JOINT rForeArm
          {
            OFFSET -28.1742 -1.7115 0.48768
            CHANNELS 3 Zrotation Xrotation Yrotation
            JOINT rHand
            {
              OFFSET -22.5879 0.773209 7.07136
              CHANNELS 3 Zrotation Xrotation Yrotation
              JOINT rThumb1
              {
                OFFSET -1.2192 -0.487915 3.41376
                CHANNELS 3 Zrotation Xrotation Yrotation
                JOINT rThumb2
                {
                  OFFSET -3.37035 -0.52449 3.41376
                  CHANNELS 3 Zrotation Xrotation Yrotation
                  End Site
                  {
                    OFFSET -1.78271 -1.18214 1.43049
                  }
                }
              }
              JOINT rIndex1
              {
                OFFSET -7.75947 0.938293 5.60832
                CHANNELS 3 Zrotation Xrotation Yrotation
                JOINT rIndex2
                {
                  OFFSET -2.54057 -0.884171 1.56538
                  CHANNELS 3 Zrotation Xrotation Yrotation
                  End Site
                  {
                    OFFSET -1.62519 -0.234802 1.16502
                  }
                }
              }
              JOINT rMid1
              {
                OFFSET -8.24714 1.18213 3.41376
                CHANNELS 3 Zrotation Xrotation Yrotation
                JOINT rMid2
                {
                  OFFSET -3.10165 -0.590103 1.0647
                  CHANNELS 3 Zrotation Xrotation Yrotation
                  End Site
                  {
                    OFFSET -2.48547 -0.328903 0.83742
                  }
                }
              }
              JOINT rRing1
              {
                OFFSET -8.82822 0.546677 1.51678
                CHANNELS 3 Zrotation Xrotation Yrotation
                JOINT rRing2
                {
                  OFFSET -2.60934 -0.819778 -0.0198488
                  CHANNELS 3 Zrotation Xrotation Yrotation
                  End Site
                  {
                    OFFSET -2.33842 -0.294052 0.168128
                  }
                }
              }
              JOINT rPinky1
              {
                OFFSET -8.27202 -0.0477905 -0.4584
                CHANNELS 3 Zrotation Xrotation Yrotation
                JOINT rPinky2
                {
                  OFFSET -1.82734 -0.647385 -0.700984
                  CHANNELS 3 Zrotation Xrotation Yrotation
                  End Site
                  {
                    OFFSET -1.69225 -0.51767 -0.607171
                  }
                }
              }
            }
          }
        }
      }
      JOINT lCollar
      {
        OFFSET 2.68224 19.2634 -4.8768
        CHANNELS 3 Zrotation Xrotation Yrotation
        JOINT lShldr
        {
          OFFSET 8.77824 -1.95073 1.46304
          CHANNELS 3 Zrotation Xrotation Yrotation
          JOINT lForeArm
          {
            OFFSET 28.1742 -1.7115 0.48768
            CHANNELS 3 Zrotation Xrotation Yrotation
            JOINT lHand
            {
              OFFSET 22.5879 0.773209 7.07136
              CHANNELS 3 Zrotation Xrotation Yrotation
              JOINT lThumb1
              {
                OFFSET 1.2192 -0.487915 3.41376
                CHANNELS 3 Zrotation Xrotation Yrotation
                JOINT lThumb2
                {
                  OFFSET 3.37035 -0.52449 3.41376
                  CHANNELS 3 Zrotation Xrotation Yrotation
                  End Site
                  {
                    OFFSET 1.78271 -1.18214 1.43049
                  }
                }
              }
              JOINT lIndex1
              {
                OFFSET 7.75947 0.938293 5.60832
                CHANNELS 3 Zrotation Xrotation Yrotation
                JOINT lIndex2
                {
                  OFFSET 2.54057 -0.884171 1.56538
                  CHANNELS 3 Zrotation Xrotation Yrotation
                  End Site
                  {
                    OFFSET 1.62519 -0.234802 1.16502
                  }
                }
              }
              JOINT lMid1
              {
                OFFSET 8.24714 1.18213 3.41376
                CHANNELS 3 Zrotation Xrotation Yrotation
                JOINT lMid2
                {
                  OFFSET 3.10165 -0.590103 1.0647
                  CHANNELS 3 Zrotation Xrotation Yrotation
                  End Site
                  {
                    OFFSET 2.48547 -0.328903 0.83742
                  }
                }
              }
              JOINT lRing1
              {
                OFFSET 8.82822 0.546677 1.51678
                CHANNELS 3 Zrotation Xrotation Yrotation
                JOINT lRing2
                {
                  OFFSET 2.60934 -0.819778 -0.0198488
                  CHANNELS 3 Zrotation Xrotation Yrotation
                  End Site
                  {
                    OFFSET 2.33842 -0.294052 0.168128
                  }
                }
              }
              JOINT lPinky1
              {
                OFFSET 8.27202 -0.0477905 -0.4584
                CHANNELS 3 Zrotation Xrotation Yrotation
                JOINT lPinky2
                {
                  OFFSET 1.82734 -0.647385 -0.700984
                  CHANNELS 3 Zrotation Xrotation Yrotation
                  End Site
                  {
                    OFFSET 1.69225 -0.51767 -0.607171
                  }
                }
              }
            }
          }
        }
      }
    }
  }
  JOINT rButtock
  {
    OFFSET -8.77824 4.35084 1.2192
    CHANNELS 3 Zrotation Xrotation Yrotation
    JOINT rThigh
    {
      OFFSET 0 -1.70687 -2.19456
      CHANNELS 3 Zrotation Xrotation Yrotation
      JOINT rShin
      {
        OFFSET 0 -36.8199 0.73152
        CHANNELS 3 Zrotation Xrotation Yrotation
        JOINT rFoot
        {
          OFFSET 0.73152 -45.1104 -5.12064
          CHANNELS 3 Zrotation Xrotation Yrotation
          End Site
          {
            OFFSET -1.1221 -3.69964 12.103
          }
        }
      }
    }
  }
  JOINT lButtock
  {
    OFFSET 8.77824 4.35084 1.2192
    CHANNELS 3 Zrotation Xrotation Yrotation
    JOINT lThigh
    {
      OFFSET 0 -1.70687 -2.19456
      CHANNELS 3 Zrotation Xrotation Yrotation
      JOINT lShin
      {
        OFFSET 0 -36.8199 0.73152
        CHANNELS 3 Zrotation Xrotation Yrotation
        JOINT lFoot
        {
          OFFSET -0.73152 -45.1104 -5.12064
          CHANNELS 3 Zrotation Xrotation Yrotation
          End Site
          {
            OFFSET 1.1221 -3.69964 12.103
          }
        }
      }
    }
  }
}
MOTION
Frames:	5
Frame Time:	0.00833333
11.8254 108.34 3.35668 180.08 19.4037 -167.577 -6.91375 -0.713611 25.3264 -3.4127 2.13848 7.1184 -1.34947 -12.7261 1.05728 11.2238 41.7306 -10.3558 -0.0 0.0 0.0 -0.0 0.0 0.0 2.83515e-13 -3.4827e-13 9.07949e-14 36.676 41.3545 29.4047 -28.3334 -33.2678 72.5052 -0.0471284 6.18369 0.872485 9.44865e-10 4.47532e-09 -1.238e-09 1.62881e-09 7.73457e-09 -2.14549e-09 9.44875e-10 4.47533e-09 -1.23801e-09 7.73091 5.47488 0.417314 9.44863e-10 4.47532e-09 -1.238e-09 2.90554 0.965183 0.102902 9.44875e-10 4.47532e-09 -1.238e-09 10.2786 0.731801 0.0259123 9.44864e-10 4.47532e-09 -1.238e-09 2.22167 -0.733487 -0.20892 2.83437e-13 -3.48271e-13 9.04967e-14 -76.1276 52.0037 52.5342 26.9511 -26.1761 -61.1614 0.18326 12.1083 -1.72776 1.66602e-09 1.4747e-10 -1.06531e-09 2.86786e-09 2.43357e-10 -1.85428e-09 1.66601e-09 1.47468e-10 -1.0653e-09 -7.73091 5.47488 -0.417314 1.66602e-09 1.47465e-10 -1.06531e-09 -2.90554 0.965183 -0.102902 1.66601e-09 1.4747e-10 -1.06531e-09 -10.2786 0.731801 -0.0259123 1.66602e-09 1.47471e-10 -1.06531e-09 -2.22167 -0.733487 0.20892 -2.03217e-16 0.0 -3.88251e-19 -16.6435 6.29394 1.57792 -0.588771 50.7619 1.22303 3.58949 37.0457 -9.37458 2.03217e-16 0.0 3.88251e-19 24.4057 -64.8571 1.73668 0.90856 51.9703 -0.0179423 -0.651088 34.3832 2.28909
11.8506 108.469 1.32656 180.42 19.7285 -167.721 -6.52556 -1.01008 25.6031 -3.23725 2.49885 7.17998 -1.34193 -12.4639 1.13524 11.1862 42.0298 -10.4477 -0.0 0.0 0.0 -0.0 0.0 0.0 2.46137e-13 -2.35808e-13 -1.46062e-13 37.8867 41.8067 28.4305 -28.3067 -32.9766 72.0402 -0.0541281 6.62738 0.935623 4.24887e-11 -2.14678e-10 -1.57504e-10 7.69034e-11 -3.65625e-10 -2.71262e-10 4.24979e-11 -2.1468e-10 -1.57509e-10 7.73091 5.47488 0.417314 4.24862e-11 -2.14685e-10 -1.57504e-10 2.90554 0.965183 0.102902 4.24972e-11 -2.14678e-10 -1.57503e-10 10.2786 0.731801 0.0259123 4.24858e-11 -2.14683e-10 -1.575e-10 2.22167 -0.733487 -0.20892 2.46033e-13 -2.35809e-13 -1.46359e-13 -77.7351 51.9024 53.9266 27.0302 -26.4392 -61.5787 0.191938 12.3938 -1.76975 7.4761e-10 3.33016e-10 -2.32308e-10 1.29143e-09 5.71703e-10 -4.07952e-10 7.47601e-10 3.33015e-10 -2.32301e-10 -7.73091 5.47488 -0.417314 7.47605e-10 3.33011e-10 -2.32316e-10 -2.90554 0.965183 -0.102902 7.47601e-10 3.33016e-10 -2.32309e-10 -10.2786 0.731801 -0.0259123 7.47614e-10 3.33018e-10 -2.32315e-10 -2.22167 -0.733487 0.20892 -2.03217e-16 0.0 -3.88251e-19 -17.2631 5.89077 1.71115 -0.713925 53.5049 1.24797 2.88943 36.336 -8.43338 2.03217e-16 0.0 3.88251e-19 23.3147 -62.4924 0.476054 0.764542 48.0018 0.201749 -0.67432 35.4103 2.14398
11.8764 108.529 -0.714726 180.803 20.0632 -167.857 -6.0575 -1.31793 25.8881 -3.04315 2.85863 7.24246 -1.32196 -12.2115 1.21145 11.1036 42.3146 -10.5233 -0.0 0.0 0.0 -0.0 0.0 0.0 1.80319e-13 -5.12861e-14 -4.84507e-13 39.243 42.2389 27.2578 -28.2821 -32.7198 71.6239 -0.061471 7.0683 0.998473 -1.43989e-09 -7.80041e-09 1.54167e-09 -2.47343e-09 -1.34677e-08 2.67588e-09 -1.43989e-09 -7.80042e-09 1.54167e-09 7.73091 5.47488 0.417314 -1.4399e-09 -7.80042e-09 1.54167e-09 2.90554 0.965183 0.102902 -1.43989e-09 -7.80041e-09 1.54167e-09 10.2786 0.731801 0.0259123 -1.4399e-09 -7.80042e-09 1.54168e-09 2.22167 -0.733487 -0.20892 1.80161e-13 -5.12875e-14 -4.84795e-13 -79.3274 51.7435 55.287 27.1107 -26.7153 -62.0211 0.203379 12.753 -1.82275 -6.73406e-10 4.45578e-10 8.30574e-10 -1.14985e-09 7.77716e-10 1.4396e-09 -6.73414e-10 4.45577e-10 8.30583e-10 -7.73091 5.47488 -0.417314 -6.73411e-10 4.45572e-10 8.30564e-10 -2.90554 0.965183 -0.102902 -6.73414e-10 4.45577e-10 8.30573e-10 -10.2786 0.731801 -0.0259123 -6.734e-10 4.45578e-10 8.30565e-10 -2.22167 -0.733487 0.20892 -2.03217e-16 0.0 -3.88251e-19 -17.8296 5.48636 1.89584 -0.85841 56.1906 1.28865 2.32762 35.5848 -7.70671 2.03217e-16 0.0 3.88251e-19 22.5207 -60.0598 -0.544744 0.650827 44.0217 0.397609 -0.704584 36.4184 2.05373
11.9026 108.512 -2.76365 181.236 20.405 -167.973 -5.51908 -1.63894 26.1594 -2.85104 3.21561 7.30043 -1.28151 -11.9684 1.29848 10.9801 42.6005 -10.57 -0.0 0.0 0.0 -0.0 0.0 0.0 1.07068e-13 1.27471e-13 -7.9572e-13 40.7162 42.6337 25.9444 -28.2577 -32.4789 71.2294 -0.0687112 7.46994 1.05585 -2.79575e-09 -1.46573e-08 3.0917e-09 -4.80628e-09 -2.53107e-08 5.36421e-09 -2.79575e-09 -1.46574e-08 3.09169e-09 7.73091 5.47488 0.417314 -2.79575e-09 -1.46574e-08 3.0917e-09 2.90554 0.965183 0.102902 -2.79575e-09 -1.46573e-08 3.0917e-09 10.2786 0.731801 0.0259123 -2.79576e-09 -1.46574e-08 3.09171e-09 2.22167 -0.733487 -0.20892 1.06863e-13 1.2747e-13 -7.95994e-13 -80.8907 51.499 56.6225 27.1931 -27.0064 -62.4868 0.215786 13.1235 -1.87763 -1.99122e-09 5.12478e-10 1.7865e-09 -3.41412e-09 9.03758e-10 3.10143e-09 -1.99122e-09 5.12478e-10 1.78651e-09 -7.73091 5.47488 -0.417314 -1.99122e-09 5.12472e-10 1.78649e-09 -2.90554 0.965183 -0.102902 -1.99122e-09 5.12476e-10 1.7865e-09 -10.2786 0.731801 -0.0259123 -1.99121e-09 5.12477e-10 1.78649e-09 -2.22167 -0.733487 0.20892 -2.03217e-16 0.0 -3.88251e-19 -18.376 5.06338 2.11555 -1.02444 58.8302 1.35181 1.85094 34.7928 -7.11055 2.03217e-16 0.0 3.88251e-19 21.8926 -57.5909 -1.48841 0.560294 40.0695 0.578774 -0.853242 37.5068 2.19832
11.9287 108.415 -4.81942 181.715 20.7628 -168.062 -4.9203 -1.97516 26.3954 -2.68143 3.5676 7.34849 -1.21274 -11.7335 1.40885 10.8197 42.9029 -10.5748 -0.0 0.0 0.0 -0.0 0.0 0.0 4.73951e-14 2.22638e-13 -9.50887e-13 42.2739 42.9761 24.5512 -28.2307 -32.2345 70.8317 -0.0751233 7.7958 1.10251 -3.31855e-09 -1.71609e-08 3.72476e-09 -5.70576e-09 -2.96335e-08 6.46202e-09 -3.31855e-09 -1.7161e-08 3.72475e-09 7.73091 5.47488 0.417314 -3.31855e-09 -1.7161e-08 3.72475e-09 2.90554 0.965183 0.102902 -3.31855e-09 -1.7161e-08 3.72475e-09 10.2786 0.731801 0.0259123 -3.31856e-09 -1.7161e-08 3.72476e-09 2.22167 -0.733487 -0.20892 4.71798e-14 2.22638e-13 -9.51135e-13 -82.4075 51.141 57.9367 27.2779 -27.3145 -62.9741 0.226907 13.4432 -1.92513 -2.60001e-09 5.6104e-10 2.29862e-09 -4.45952e-09 9.92193e-10 3.99056e-09 -2.60002e-09 5.61041e-10 2.29863e-09 -7.73091 5.47488 -0.417314 -2.60001e-09 5.61035e-10 2.29861e-09 -2.90554 0.965183 -0.102902 -2.60002e-09 5.61038e-10 2.29862e-09 -10.2786 0.731801 -0.0259123 -2.6e-09 5.61039e-10 2.29861e-09 -2.22167 -0.733487 0.20892 -2.03217e-16 0.0 -3.88251e-19 -18.9356 4.6045 2.35386 -1.21674 61.4349 1.44657 1.41143 33.9578 -6.56381 2.03217e-16 0.0 3.88251e-19 21.3429 -55.1136 -2.47924 0.487928 36.1849 0.752323 -1.25216 38.7722 2.77073
